# xmcd
#
# Track frame offsets:
#	150
#	12450
#	27519
#	49570
#	61932
#	75509
#	96502
#	108337
#	123765
#	135813
#	153594
#	164868
#	175456
#	188420
#	207533
#	226197
#	236251
#	246594
#	259919
#	272702
#
# Disc length: 3748 seconds
#
# Revision: 1
# Processed by: cddbd v1.4PL0 Copyright (c) Steve Scherf et al.
# Submitted via: audiograbber 1.81.02
#
DISCID=110ea214
DTITLE=Various Artist - Flatpicking '99
DYEAR=1900
DGENRE=
TTITLE0=The Old Minor Joe Clark Gary Brewer
TTITLE1=New Five Cent Piece Doug Rorrer
TTITLE2=Sarah Hogan John Lowell
TTITLE3=Wheel Hoss Wyatt Rice
TTITLE4=Saint Anne's Reel   Fisher's Hornpipe Peter McLaughlin
TTITLE5=Kentucky Waltz Rob Pearcy
TTITLE6=Signal Hill Brad Davis
TTITLE7=Dawg's Pause Dix Bruce
TTITLE8=Fickle Wind Travis Alltop
TTITLE9=Bill Cheatum Roy Curry
TTITLE10=Don't Try This at Home John Moore
TTITLE11=Dry and Dusty Robin Kessinger
TTITLE12=Blinded By Love Ray Craft w Unlimited Tradition
TTITLE13=Alarm Clock Jim Hurst
TTITLE14=El Cumbanchero John Chapman
TTITLE15=Against the Grain Tim May w Crucial Smith
TTITLE16=Road to Coeburn James Alan Shelton
TTITLE17=Cotton Patch Rag Cody Kilby
TTITLE18=Cascade David Grier
TTITLE19=Big Mang John Carlini and Tony Rice
EXTD=
EXTT0=
EXTT1=
EXTT2=
EXTT3=
EXTT4=
EXTT5=
EXTT6=
EXTT7=
EXTT8=
EXTT9=
EXTT10=
EXTT11=
EXTT12=
EXTT13=
EXTT14=
EXTT15=
EXTT16=
EXTT17=
EXTT18=
EXTT19=
PLAYORDER=
